<svg width="35" height="35" viewBox="0 0 35 35" fill="none" xmlns="http://www.w3.org/2000/svg">
<path d="M32.8125 17.4043C32.8125 17.3291 32.8125 17.2437 32.8091 17.1445C32.8057 16.8677 32.7988 16.5566 32.792 16.2251C32.7646 15.2715 32.7168 14.3213 32.6416 13.4258C32.5391 12.1919 32.3887 11.1631 32.1836 10.3906C31.9672 9.58449 31.543 8.84929 30.9534 8.25848C30.3638 7.66768 29.6294 7.24198 28.8237 7.02393C27.8564 6.76416 25.9629 6.60352 23.2969 6.50439C22.0288 6.45654 20.6719 6.42578 19.3149 6.40869C18.8398 6.40186 18.3989 6.39844 18.0024 6.39502H16.9976C16.6011 6.39844 16.1602 6.40186 15.6851 6.40869C14.3281 6.42578 12.9712 6.45654 11.7031 6.50439C9.03711 6.60693 7.14014 6.76758 6.17627 7.02393C5.37032 7.24144 4.63569 7.66697 4.046 8.25785C3.45631 8.84874 3.03229 9.58423 2.81641 10.3906C2.60791 11.1631 2.46094 12.1919 2.3584 13.4258C2.2832 14.3213 2.23535 15.2715 2.20801 16.2251C2.19775 16.5566 2.19434 16.8677 2.19092 17.1445C2.19092 17.2437 2.1875 17.3291 2.1875 17.4043V17.5957C2.1875 17.6709 2.1875 17.7563 2.19092 17.8555C2.19434 18.1323 2.20117 18.4434 2.20801 18.7749C2.23535 19.7285 2.2832 20.6787 2.3584 21.5742C2.46094 22.8081 2.61133 23.8369 2.81641 24.6094C3.25391 26.2466 4.53906 27.5386 6.17627 27.9761C7.14014 28.2358 9.03711 28.3965 11.7031 28.4956C12.9712 28.5435 14.3281 28.5742 15.6851 28.5913C16.1602 28.5981 16.6011 28.6016 16.9976 28.605H18.0024C18.3989 28.6016 18.8398 28.5981 19.3149 28.5913C20.6719 28.5742 22.0288 28.5435 23.2969 28.4956C25.9629 28.3931 27.8599 28.2324 28.8237 27.9761C30.4609 27.5386 31.7461 26.25 32.1836 24.6094C32.3921 23.8369 32.5391 22.8081 32.6416 21.5742C32.7168 20.6787 32.7646 19.7285 32.792 18.7749C32.8022 18.4434 32.8057 18.1323 32.8091 17.8555C32.8091 17.7563 32.8125 17.6709 32.8125 17.5957V17.4043ZM30.3516 17.582C30.3516 17.6538 30.3516 17.7324 30.3481 17.8247C30.3447 18.0913 30.3379 18.3853 30.3311 18.7031C30.3071 19.6123 30.2593 20.5215 30.1875 21.3657C30.0952 22.4663 29.9653 23.3687 29.8047 23.9736C29.5928 24.7632 28.9707 25.3887 28.1846 25.5972C27.4668 25.7886 25.6587 25.9424 23.2012 26.0347C21.957 26.0825 20.6172 26.1133 19.2808 26.1304C18.8125 26.1372 18.3784 26.1406 17.9888 26.1406H17.0112L15.7192 26.1304C14.3828 26.1133 13.0464 26.0825 11.7988 26.0347C9.34131 25.939 7.52979 25.7886 6.81543 25.5972C6.0293 25.3853 5.40723 24.7632 5.19531 23.9736C5.03467 23.3687 4.90479 22.4663 4.8125 21.3657C4.74072 20.5215 4.69629 19.6123 4.66895 18.7031C4.65869 18.3853 4.65527 18.0879 4.65186 17.8247C4.65186 17.7324 4.64844 17.6504 4.64844 17.582V17.418C4.64844 17.3462 4.64844 17.2676 4.65186 17.1753C4.65527 16.9087 4.66211 16.6147 4.66895 16.2969C4.69287 15.3877 4.74072 14.4785 4.8125 13.6343C4.90479 12.5337 5.03467 11.6313 5.19531 11.0264C5.40723 10.2368 6.0293 9.61133 6.81543 9.40283C7.5332 9.21143 9.34131 9.05762 11.7988 8.96533C13.043 8.91748 14.3828 8.88672 15.7192 8.86963C16.1875 8.86279 16.6216 8.85938 17.0112 8.85938H17.9888L19.2808 8.86963C20.6172 8.88672 21.9536 8.91748 23.2012 8.96533C25.6587 9.06103 27.4702 9.21143 28.1846 9.40283C28.9707 9.61475 29.5928 10.2368 29.8047 11.0264C29.9653 11.6313 30.0952 12.5337 30.1875 13.6343C30.2593 14.4785 30.3037 15.3877 30.3311 16.2969C30.3413 16.6147 30.3447 16.9121 30.3481 17.1753C30.3481 17.2676 30.3516 17.3496 30.3516 17.418V17.582ZM14.458 22.0801L22.3877 17.4658L14.458 12.9199V22.0801Z" fill="#2AFFF2"/>
</svg>
