<svg width="173" height="76" viewBox="0 0 173 76" fill="none" xmlns="http://www.w3.org/2000/svg">
<path d="M115.638 18.7441C116.598 21.1342 116.3 23.9562 114.833 27.0621C113.367 30.1687 110.752 33.5113 107.171 36.8858C100.013 43.6327 89.0751 50.4338 76.0504 55.6678C63.0258 60.9018 50.423 63.5606 40.5867 63.643C35.6669 63.6842 31.4662 63.0805 28.2577 61.8526C25.05 60.625 22.8818 58.7942 21.9214 56.4041C20.9609 54.014 21.2594 51.1919 22.7256 48.0861C24.1922 44.9794 26.8072 41.6369 30.3875 38.2623C37.5457 31.5154 48.4838 24.7143 61.5085 19.4804C74.5331 14.2464 87.1359 11.5875 96.9722 11.5052C101.892 11.464 106.093 12.0676 109.301 13.2955C112.509 14.5232 114.677 16.354 115.638 18.7441Z" stroke="#2AFFF2"/>
<path d="M1.16 46V34.2C1.16 33.72 1.27333 33.2867 1.5 32.9C1.74 32.5 2.05333 32.1867 2.44 31.96C2.84 31.72 3.28 31.6 3.76 31.6H12.94C13.42 31.6 13.86 31.72 14.26 31.96C14.66 32.1867 14.9733 32.5 15.2 32.9C15.44 33.2867 15.56 33.72 15.56 34.2V46H13.38V40.96H3.32V46H1.16ZM3.32 38.8H13.38V34.26C13.38 34.1267 13.3333 34.0133 13.24 33.92C13.1467 33.8133 13.0333 33.76 12.9 33.76H3.82C3.68667 33.76 3.56667 33.8133 3.46 33.92C3.36667 34.0133 3.32 34.1267 3.32 34.26V38.8ZM17.8388 46V31.6H20.4188L30.0588 43.08V31.6H32.2388V46H29.6588L19.9988 34.5V46H17.8388ZM34.4194 46V31.6H36.5794V46H34.4194ZM38.7567 46V31.6H41.3367L46.9167 38.24L52.4767 31.6H55.0767V46H52.8967V34.5L46.9167 41.62L40.9167 34.5V46H38.7567ZM57.3514 46V31.6H70.5514V33.76H59.5314V37.72H68.3914V39.88H59.5314V43.84H70.5514V46H57.3514ZM78.4247 46V31.62H90.2047C90.6847 31.62 91.1247 31.74 91.5247 31.98C91.9247 32.22 92.238 32.54 92.4647 32.94C92.7047 33.3267 92.8247 33.7533 92.8247 34.22V38.26C92.8247 38.74 92.7047 39.18 92.4647 39.58C92.238 39.9667 91.9247 40.28 91.5247 40.52C91.1247 40.7467 90.6847 40.86 90.2047 40.86L80.5847 40.88V46H78.4247ZM81.0847 38.68H90.1647C90.298 38.68 90.4114 38.6333 90.5047 38.54C90.598 38.4467 90.6447 38.3333 90.6447 38.2V34.28C90.6447 34.1467 90.598 34.0333 90.5047 33.94C90.4114 33.8333 90.298 33.78 90.1647 33.78H81.0847C80.9514 33.78 80.8314 33.8333 80.7247 33.94C80.6314 34.0333 80.5847 34.1467 80.5847 34.28V38.2C80.5847 38.3333 80.6314 38.4467 80.7247 38.54C80.8314 38.6333 80.9514 38.68 81.0847 38.68ZM94.265 46V31.58H96.425V43.84H108.665V46H94.265ZM109.871 46V34.2C109.871 33.72 109.984 33.2867 110.211 32.9C110.451 32.5 110.764 32.1867 111.151 31.96C111.551 31.72 111.991 31.6 112.471 31.6H121.651C122.131 31.6 122.571 31.72 122.971 31.96C123.371 32.1867 123.684 32.5 123.911 32.9C124.151 33.2867 124.271 33.72 124.271 34.2V46H122.091V40.96H112.031V46H109.871ZM112.031 38.8H122.091V34.26C122.091 34.1267 122.044 34.0133 121.951 33.92C121.858 33.8133 121.744 33.76 121.611 33.76H112.531C112.398 33.76 112.278 33.8133 112.171 33.92C112.078 34.0133 112.031 34.1267 112.031 34.26V38.8ZM126.55 46V31.6H129.13L138.77 43.08V31.6H140.95V46H138.37L128.71 34.5V46H126.55ZM143.23 46V31.6H156.43V33.76H145.41V37.72H154.27V39.88H145.41V43.84H156.43V46H143.23ZM163.903 46V33.76H157.783V31.6H172.183V33.76H166.063V46H163.903Z" fill="#C4F8FF"/>
</svg>
