<svg width="35" height="35" viewBox="0 0 35 35" fill="none" xmlns="http://www.w3.org/2000/svg">
<path d="M10.2083 11.6667V8.75004C10.2083 6.81617 10.9766 4.96151 12.344 3.59405C13.7115 2.2266 15.5661 1.45837 17.5 1.45837C19.4339 1.45837 21.2885 2.2266 22.656 3.59405C24.0234 4.96151 24.7917 6.81617 24.7917 8.75004V11.6667H29.1667C29.5534 11.6667 29.9244 11.8204 30.1979 12.0938C30.4714 12.3673 30.625 12.7383 30.625 13.125V30.625C30.625 31.0118 30.4714 31.3827 30.1979 31.6562C29.9244 31.9297 29.5534 32.0834 29.1667 32.0834H5.83333C5.44656 32.0834 5.07563 31.9297 4.80214 31.6562C4.52865 31.3827 4.375 31.0118 4.375 30.625V13.125C4.375 12.7383 4.52865 12.3673 4.80214 12.0938C5.07563 11.8204 5.44656 11.6667 5.83333 11.6667H10.2083ZM10.2083 14.5834H7.29167V29.1667H27.7083V14.5834H24.7917V17.5H21.875V14.5834H13.125V17.5H10.2083V14.5834ZM13.125 11.6667H21.875V8.75004C21.875 7.58972 21.4141 6.47692 20.5936 5.65645C19.7731 4.83598 18.6603 4.37504 17.5 4.37504C16.3397 4.37504 15.2269 4.83598 14.4064 5.65645C13.5859 6.47692 13.125 7.58972 13.125 8.75004V11.6667Z" fill="#2AFFF2"/>
</svg>
